<svg width="14" height="14" viewBox="0 0 14 14" fill="none" xmlns="http://www.w3.org/2000/svg">
<path d="M7.00001 9C4.88663 9 3.00721 10.0204 1.81068 11.604C1.55315 11.9448 1.42439 12.1152 1.4286 12.3455C1.43185 12.5235 1.54359 12.7479 1.68359 12.8578C1.8648 13 2.11592 13 2.61817 13H11.3819C11.8841 13 12.1352 13 12.3164 12.8578C12.4564 12.7479 12.5682 12.5235 12.5714 12.3455C12.5756 12.1152 12.4469 11.9448 12.1893 11.604C10.9928 10.0204 9.1134 9 7.00001 9Z" stroke="#475467" stroke-width="1.5" stroke-linecap="round" stroke-linejoin="round"/>
<path d="M7.00001 7C8.65687 7 10 5.65685 10 4C10 2.34315 8.65687 1 7.00001 1C5.34316 1 4.00001 2.34315 4.00001 4C4.00001 5.65685 5.34316 7 7.00001 7Z" stroke="#475467" stroke-width="1.5" stroke-linecap="round" stroke-linejoin="round"/>
</svg>
