<svg width="56" height="56" viewBox="0 0 56 56" fill="none" xmlns="http://www.w3.org/2000/svg">
<rect width="56" height="56" rx="28" fill="#FEEDE6"/>
<path d="M32.966 21.402C32.7772 21.1502 32.4808 21.002 32.166 21.002H21.4677C21.1709 21.002 20.8895 21.1338 20.6995 21.3618L15.2819 27.8629C15.207 27.9528 15.166 28.0661 15.166 28.183V31.302C15.166 31.4125 15.2556 31.502 15.366 31.502H17.2993C17.4098 31.502 17.4988 31.5917 17.5051 31.7019C17.554 32.5573 17.9154 33.3678 18.5245 33.9769C19.1809 34.6333 20.0711 35.002 20.9993 35.002C21.9276 35.002 22.8178 34.6333 23.4742 33.9769C24.0833 33.3678 24.4447 32.5573 24.4936 31.7019C24.4999 31.5917 24.5889 31.502 24.6993 31.502H31.2993C31.4098 31.502 31.4988 31.5917 31.5051 31.7019C31.554 32.5573 31.9154 33.3678 32.5245 33.9769C33.1808 34.6333 34.0711 35.002 34.9993 35.002C35.9276 35.002 36.8178 34.6333 37.4742 33.9769C38.0833 33.3678 38.4447 32.5573 38.4936 31.7019C38.4999 31.5917 38.5889 31.502 38.6993 31.502H40.6327C40.7431 31.502 40.8327 31.4125 40.8327 31.302V28.002C40.8327 26.707 39.7943 25.6687 38.4993 25.6687H36.416C36.2586 25.6687 36.1104 25.5946 36.016 25.4687L32.966 21.402ZM21.5226 22.8271C21.5606 22.7796 21.618 22.752 21.6788 22.752H26.0493C26.1598 22.752 26.2493 22.8416 26.2493 22.952V25.4687C26.2493 25.5791 26.1598 25.6687 26.0493 25.6687H19.6655C19.4978 25.6687 19.4045 25.4747 19.5093 25.3437L21.5226 22.8271ZM27.9993 22.952C27.9993 22.8416 28.0889 22.752 28.1993 22.752H31.9853C32.0468 22.752 32.1048 22.7803 32.1427 22.8286L34.1158 25.3453C34.2187 25.4765 34.1252 25.6687 33.9584 25.6687H28.1993C28.0889 25.6687 27.9993 25.5791 27.9993 25.4687V22.952ZM20.9993 29.752C21.4635 29.752 21.9086 29.9364 22.2368 30.2646C22.565 30.5928 22.7493 31.0379 22.7493 31.502C22.7493 31.9661 22.565 32.4113 22.2368 32.7394C21.9086 33.0676 21.4635 33.252 20.9993 33.252C20.5352 33.252 20.0901 33.0676 19.7619 32.7394C19.4337 32.4113 19.2493 31.9661 19.2493 31.502C19.2493 31.0379 19.4337 30.5928 19.7619 30.2646C20.0901 29.9364 20.5352 29.752 20.9993 29.752ZM34.9993 29.752C35.4635 29.752 35.9086 29.9364 36.2368 30.2646C36.565 30.5928 36.7493 31.0379 36.7493 31.502C36.7493 31.9661 36.565 32.4113 36.2368 32.7394C35.9086 33.0676 35.4635 33.252 34.9993 33.252C34.5352 33.252 34.0901 33.0676 33.7619 32.7394C33.4337 32.4113 33.2493 31.9661 33.2493 31.502C33.2493 31.0379 33.4337 30.5928 33.7619 30.2646C34.0901 29.9364 34.5352 29.752 34.9993 29.752Z" fill="#DF4100"/>
</svg>
