<svg width="24" height="24" viewBox="0 0 24 24" fill="none" xmlns="http://www.w3.org/2000/svg">
<rect x="0.25" y="0.25" width="23.5" height="23.5" rx="11.75" stroke="#EAECF0" stroke-width="0.5"/>
<g clip-path="url(#clip0_315_546)">
<path d="M-3.81818 0H27.8182V24H-3.81818V0Z" fill="#012169"/>
<path d="M-0.11079 0L11.9506 9.05L23.9625 0H27.8182V3.1L15.9546 12.05L27.8182 20.95V24H23.8636L12 15.05L0.185801 24H-3.81818V21L7.99603 12.1L-3.81818 3.2V0H-0.11079Z" fill="white"/>
<path d="M15.7227 13.4909L23.4545 19.2727V20.7273L13.754 13.4909H15.7227ZM9.13636 14.2182L9.35114 15.4909L2.47841 20.7273H0.545456L9.13636 14.2182ZM23.4545 3.27271V3.3818L14.5415 10.2182L14.6131 8.61816L21.6648 3.27271H23.4545ZM0.545456 3.27271L9.10057 9.67271H6.95284L0.545456 4.79998V3.27271Z" fill="#C8102E"/>
<path d="M9.17899 0V24H14.9063V0H9.17899ZM-1.63635 9.09091V14.9091H25.6364V9.09091H-1.63635Z" fill="white"/>
<path d="M-3.83182 10.2767V13.7967H24.8182V10.2767H-3.83182ZM10.3156 -1.09094V24.5454H13.7561V-1.09094H10.3156Z" fill="#C8102E"/>
</g>
<defs>
<clipPath id="clip0_315_546">
<rect width="31.6364" height="24" fill="white" transform="translate(-3.81818)"/>
</clipPath>
</defs>
</svg>
