<svg width="24" height="24" viewBox="0 0 24 24" fill="white" xmlns="http://www.w3.org/2000/svg">
<rect x="0.25" y="0.25" width="23.5" height="23.5" rx="11.75" stroke="#EAECF0" stroke-width="0.5"/>
<g clip-path="url(#clip0_315_534)">
<path d="M10.3636 -0.54541H13.6364V24H10.3636V-0.54541Z" fill="#FF0000"/>
<path d="M-4.36362 10.3636H28.3637V13.6364H-4.36362V10.3636Z" fill="#FF0000"/>
<path fill-rule="evenodd" clip-rule="evenodd" d="M6.86904 16.1513C6.90444 15.5642 7.01063 15.0645 7.01063 15.0645C7.01063 15.0645 6.66373 15.0995 6.48674 15.0995C6.31329 15.0995 5.96285 15.0645 5.96285 15.0645C5.96285 15.0645 6.06904 15.5642 6.10444 16.1548C5.50621 16.1199 5.00002 16.0151 5.00002 16.0151C5.00002 16.0151 5.03541 16.2737 5.03541 16.5323C5.03541 16.7909 5.00002 17.0495 5.00002 17.0495C5.00002 17.0495 5.50621 16.9446 6.10444 16.9097C6.06904 17.5003 5.96285 18 5.96285 18C5.96285 18 6.22479 17.9651 6.48674 17.9651C6.74869 17.9651 7.01063 18 7.01063 18C7.01063 18 6.90444 17.5003 6.86904 16.9097C7.46727 16.9446 7.97347 17.0495 7.97347 17.0495C7.97347 17.0495 7.93807 16.707 7.93807 16.5323C7.93807 16.361 7.97347 16.0151 7.97347 16.0151C7.97347 16.0151 7.46727 16.1199 6.87258 16.1548L6.86904 16.1513ZM17.8956 7.08683C17.931 6.49973 18.0372 6 18.0372 6C18.0372 6 17.6903 6.03495 17.5133 6.03495C17.3398 6.03495 16.9894 6 16.9894 6C16.9894 6 17.0956 6.49973 17.131 7.08683C16.5328 7.05188 16.0266 6.95054 16.0266 6.95054C16.0266 6.95054 16.062 7.20914 16.062 7.46774C16.062 7.72634 16.0266 7.98495 16.0266 7.98495C16.0266 7.98495 16.5328 7.88011 17.131 7.84516C17.0956 8.43575 16.9894 8.93548 16.9894 8.93548C16.9894 8.93548 17.2513 8.90054 17.5133 8.90054C17.7752 8.90054 18.0372 8.93548 18.0372 8.93548C18.0372 8.93548 17.931 8.43575 17.8956 7.84866C18.4938 7.8836 19 7.98844 19 7.98844C19 7.98844 18.9646 7.63898 18.9646 7.46774C18.9646 7.29651 19 6.95054 19 6.95054C19 6.95054 18.4938 7.05538 17.8956 7.09032V7.08683ZM6.86904 7.08683C6.90444 6.49973 7.01063 6 7.01063 6C7.01063 6 6.66373 6.03495 6.48674 6.03495C6.31329 6.03495 5.96285 6 5.96285 6C5.96285 6 6.06904 6.49973 6.10444 7.09032C5.50621 7.05538 5.00002 6.95054 5.00002 6.95054C5.00002 6.95054 5.03541 7.20914 5.03541 7.46774C5.03541 7.72634 5.00002 7.98495 5.00002 7.98495C5.00002 7.98495 5.50621 7.88011 6.10444 7.84516C6.06904 8.43575 5.96285 8.93548 5.96285 8.93548C5.96285 8.93548 6.22479 8.90054 6.48674 8.90054C6.74869 8.90054 7.01063 8.93548 7.01063 8.93548C7.01063 8.93548 6.90444 8.43575 6.86904 7.84516C7.46727 7.88011 7.97347 7.98495 7.97347 7.98495C7.97347 7.98495 7.93807 7.64247 7.93807 7.46774C7.93807 7.29651 7.97347 6.95054 7.97347 6.95054C7.97347 6.95054 7.46727 7.05538 6.87258 7.09032L6.86904 7.08683ZM17.8956 16.1513C17.931 15.5642 18.0372 15.0645 18.0372 15.0645C18.0372 15.0645 17.6903 15.0995 17.5133 15.0995C17.3398 15.0995 16.9894 15.0645 16.9894 15.0645C16.9894 15.0645 17.0956 15.5642 17.131 16.1548C16.5328 16.1199 16.0266 16.0151 16.0266 16.0151C16.0266 16.0151 16.062 16.2737 16.062 16.5323C16.062 16.7909 16.0266 17.0495 16.0266 17.0495C16.0266 17.0495 16.5328 16.9446 17.131 16.9097C17.0956 17.5003 16.9894 18 16.9894 18C16.9894 18 17.2513 17.9651 17.5133 17.9651C17.7752 17.9651 18.0372 18 18.0372 18C18.0372 18 17.931 17.5003 17.8956 16.9097C18.4938 16.9446 19 17.0495 19 17.0495C19 17.0495 18.9646 16.707 18.9646 16.5323C18.9646 16.361 19 16.0151 19 16.0151C19 16.0151 18.4938 16.1199 17.8956 16.1548V16.1513Z" fill="#FF0000"/>
</g>
<defs>
<clipPath id="clip0_315_534">
<rect width="32.7273" height="24.5455" fill="white" transform="translate(-4.36363 -0.272705)"/>
</clipPath>
</defs>
</svg>
