<svg width="141" height="32" viewBox="0 0 141 32" fill="none" xmlns="http://www.w3.org/2000/svg">
<path d="M0 15.1143L17.0032 32H31.8267V15.7648L43.132 27.0976C46.2687 30.2342 50.523 31.9963 54.959 31.9963H63.6533V15.1143L48.5877 0.000415802H31.8267V14.0484L22.6661 4.88782C21.1165 3.33819 19.2769 2.10896 17.2522 1.27031C15.2276 0.431652 13.0576 0 10.8661 0H0V15.1143Z" fill="#F54700"/>
<path d="M77.0333 8.72H81.4533L84.7933 18.54H84.8333L87.9933 8.72H92.4133V23H89.4733V12.88H89.4333L85.9333 23H83.5133L80.0133 12.98H79.9733V23H77.0333V8.72ZM97.3979 17.84C97.3979 18.2533 97.4379 18.66 97.5179 19.06C97.5979 19.4467 97.7312 19.8 97.9179 20.12C98.1179 20.4267 98.3779 20.6733 98.6979 20.86C99.0179 21.0467 99.4179 21.14 99.8979 21.14C100.378 21.14 100.778 21.0467 101.098 20.86C101.431 20.6733 101.691 20.4267 101.878 20.12C102.078 19.8 102.218 19.4467 102.298 19.06C102.378 18.66 102.418 18.2533 102.418 17.84C102.418 17.4267 102.378 17.02 102.298 16.62C102.218 16.22 102.078 15.8667 101.878 15.56C101.691 15.2533 101.431 15.0067 101.098 14.82C100.778 14.62 100.378 14.52 99.8979 14.52C99.4179 14.52 99.0179 14.62 98.6979 14.82C98.3779 15.0067 98.1179 15.2533 97.9179 15.56C97.7312 15.8667 97.5979 16.22 97.5179 16.62C97.4379 17.02 97.3979 17.4267 97.3979 17.84ZM94.5579 17.84C94.5579 17.0133 94.6845 16.2667 94.9379 15.6C95.1912 14.92 95.5512 14.3467 96.0179 13.88C96.4845 13.4 97.0445 13.0333 97.6979 12.78C98.3512 12.5133 99.0845 12.38 99.8979 12.38C100.711 12.38 101.445 12.5133 102.098 12.78C102.765 13.0333 103.331 13.4 103.798 13.88C104.265 14.3467 104.625 14.92 104.878 15.6C105.131 16.2667 105.258 17.0133 105.258 17.84C105.258 18.6667 105.131 19.4133 104.878 20.08C104.625 20.7467 104.265 21.32 103.798 21.8C103.331 22.2667 102.765 22.6267 102.098 22.88C101.445 23.1333 100.711 23.26 99.8979 23.26C99.0845 23.26 98.3512 23.1333 97.6979 22.88C97.0445 22.6267 96.4845 22.2667 96.0179 21.8C95.5512 21.32 95.1912 20.7467 94.9379 20.08C94.6845 19.4133 94.5579 18.6667 94.5579 17.84ZM112.824 23H109.664L106.124 12.66H109.104L111.284 19.72H111.324L113.504 12.66H116.324L112.824 23ZM117.375 15.84C117.415 15.1733 117.582 14.62 117.875 14.18C118.168 13.74 118.542 13.3867 118.995 13.12C119.448 12.8533 119.955 12.6667 120.515 12.56C121.088 12.44 121.662 12.38 122.235 12.38C122.755 12.38 123.282 12.42 123.815 12.5C124.348 12.5667 124.835 12.7067 125.275 12.92C125.715 13.1333 126.075 13.4333 126.355 13.82C126.635 14.1933 126.775 14.6933 126.775 15.32V20.7C126.775 21.1667 126.802 21.6133 126.855 22.04C126.908 22.4667 127.002 22.7867 127.135 23H124.255C124.202 22.84 124.155 22.68 124.115 22.52C124.088 22.3467 124.068 22.1733 124.055 22C123.602 22.4667 123.068 22.7933 122.455 22.98C121.842 23.1667 121.215 23.26 120.575 23.26C120.082 23.26 119.622 23.2 119.195 23.08C118.768 22.96 118.395 22.7733 118.075 22.52C117.755 22.2667 117.502 21.9467 117.315 21.56C117.142 21.1733 117.055 20.7133 117.055 20.18C117.055 19.5933 117.155 19.1133 117.355 18.74C117.568 18.3533 117.835 18.0467 118.155 17.82C118.488 17.5933 118.862 17.4267 119.275 17.32C119.702 17.2 120.128 17.1067 120.555 17.04C120.982 16.9733 121.402 16.92 121.815 16.88C122.228 16.84 122.595 16.78 122.915 16.7C123.235 16.62 123.488 16.5067 123.675 16.36C123.862 16.2 123.948 15.9733 123.935 15.68C123.935 15.3733 123.882 15.1333 123.775 14.96C123.682 14.7733 123.548 14.6333 123.375 14.54C123.215 14.4333 123.022 14.3667 122.795 14.34C122.582 14.3 122.348 14.28 122.095 14.28C121.535 14.28 121.095 14.4 120.775 14.64C120.455 14.88 120.268 15.28 120.215 15.84H117.375ZM123.935 17.94C123.815 18.0467 123.662 18.1333 123.475 18.2C123.302 18.2533 123.108 18.3 122.895 18.34C122.695 18.38 122.482 18.4133 122.255 18.44C122.028 18.4667 121.802 18.5 121.575 18.54C121.362 18.58 121.148 18.6333 120.935 18.7C120.735 18.7667 120.555 18.86 120.395 18.98C120.248 19.0867 120.128 19.2267 120.035 19.4C119.942 19.5733 119.895 19.7933 119.895 20.06C119.895 20.3133 119.942 20.5267 120.035 20.7C120.128 20.8733 120.255 21.0133 120.415 21.12C120.575 21.2133 120.762 21.28 120.975 21.32C121.188 21.36 121.408 21.38 121.635 21.38C122.195 21.38 122.628 21.2867 122.935 21.1C123.242 20.9133 123.468 20.6933 123.615 20.44C123.762 20.1733 123.848 19.9067 123.875 19.64C123.915 19.3733 123.935 19.16 123.935 19V17.94ZM128.979 12.66H131.679V14.1H131.739C132.099 13.5 132.566 13.0667 133.139 12.8C133.713 12.52 134.299 12.38 134.899 12.38C135.659 12.38 136.279 12.4867 136.759 12.7C137.253 12.9 137.639 13.1867 137.919 13.56C138.199 13.92 138.393 14.3667 138.499 14.9C138.619 15.42 138.679 16 138.679 16.64V23H135.839V17.16C135.839 16.3067 135.706 15.6733 135.439 15.26C135.173 14.8333 134.699 14.62 134.019 14.62C133.246 14.62 132.686 14.8533 132.339 15.32C131.993 15.7733 131.819 16.5267 131.819 17.58V23H128.979V12.66Z" fill="#101828"/>
</svg>
