<svg width="16" height="20" viewBox="0 0 16 20" fill="none" xmlns="http://www.w3.org/2000/svg">
<path d="M9.66667 1.8913V5.33341C9.66667 5.80012 9.66667 6.03348 9.7575 6.21174C9.83739 6.36854 9.96487 6.49602 10.1217 6.57592C10.2999 6.66675 10.5333 6.66675 11 6.66675H14.4421M9.66667 14.1667H4.66667M11.3333 10.8334H4.66667M14.6667 8.32354V14.3334C14.6667 15.7335 14.6667 16.4336 14.3942 16.9683C14.1545 17.4387 13.7721 17.8212 13.3016 18.0609C12.7669 18.3334 12.0668 18.3334 10.6667 18.3334H5.33334C3.9332 18.3334 3.23314 18.3334 2.69836 18.0609C2.22795 17.8212 1.8455 17.4387 1.60582 16.9683C1.33334 16.4336 1.33334 15.7335 1.33334 14.3334V5.66669C1.33334 4.26656 1.33334 3.56649 1.60582 3.03171C1.8455 2.56131 2.22795 2.17885 2.69836 1.93917C3.23314 1.66669 3.9332 1.66669 5.33334 1.66669H8.00981C8.62129 1.66669 8.92703 1.66669 9.21475 1.73576C9.46984 1.797 9.7137 1.89801 9.93738 2.03509C10.1897 2.18969 10.4059 2.40588 10.8382 2.83826L13.4951 5.49511C13.9275 5.92749 14.1437 6.14368 14.2983 6.39597C14.4353 6.61966 14.5364 6.86352 14.5976 7.11861C14.6667 7.40633 14.6667 7.71206 14.6667 8.32354Z" stroke="#667085" stroke-width="1.66667" stroke-linecap="round" stroke-linejoin="round"/>
</svg>
