<svg width="180" height="136" viewBox="0 0 180 136" fill="none" xmlns="http://www.w3.org/2000/svg">
<circle cx="90" cy="64" r="64" fill="url(#paint0_linear_126_3231)"/>
<circle cx="24" cy="20" r="6" fill="#FCC6B0"/>
<circle cx="21" cy="112" r="8" fill="#FCC6B0"/>
<circle cx="164" cy="36" r="8" fill="#FCC6B0"/>
<circle cx="153" cy="9" r="5" fill="#FCC6B0"/>
<g filter="url(#filter0_dd_126_3231)">
<path fill-rule="evenodd" clip-rule="evenodd" d="M92 16C78.534 16 66.6222 22.6541 59.3733 32.8536C57.0062 32.2954 54.5376 32 52 32C34.3269 32 20 46.3269 20 64C20 81.6731 34.3269 96 52 96H132C147.464 96 160 83.464 160 68C160 52.536 147.464 40 132 40C130.902 40 129.818 40.0633 128.752 40.1863C122.623 25.9596 108.475 16 92 16Z" fill="#FEEDE6"/>
<circle cx="52" cy="64" r="32" fill="url(#paint1_linear_126_3231)"/>
<circle cx="92" cy="56" r="40" fill="url(#paint2_linear_126_3231)"/>
<circle cx="132" cy="68" r="28" fill="url(#paint3_linear_126_3231)"/>
</g>
<g filter="url(#filter1_b_126_3231)">
<rect x="62" y="60" width="56" height="56" rx="28" fill="#C67141" fill-opacity="0.4"/>
<path d="M83 93.8333C83 94.2432 83 94.4481 83.0183 94.6262C83.17 96.1053 84.2397 97.3271 85.6857 97.673C85.8599 97.7146 86.0631 97.7417 86.4693 97.7959L94.1599 98.8213C96.3491 99.1132 97.4436 99.2591 98.2932 98.9213C99.0391 98.6248 99.6603 98.0808 100.053 97.3807C100.5 96.5832 100.5 95.479 100.5 93.2704V82.7295C100.5 80.521 100.5 79.4167 100.053 78.6193C99.6603 77.9191 99.0391 77.3752 98.2932 77.0786C97.4436 76.7408 96.3491 76.8868 94.1599 77.1787L86.4693 78.2041C86.063 78.2582 85.8599 78.2853 85.6857 78.327C84.2397 78.6729 83.17 79.8946 83.0183 81.3737C83 81.5519 83 81.7568 83 82.1666M90 83.3333L94.6667 88M94.6667 88L90 92.6666M94.6667 88H79.5" stroke="white" stroke-width="2" stroke-linecap="round" stroke-linejoin="round"/>
</g>
<defs>
<filter id="filter0_dd_126_3231" x="0" y="16" width="180" height="120" filterUnits="userSpaceOnUse" color-interpolation-filters="sRGB">
<feFlood flood-opacity="0" result="BackgroundImageFix"/>
<feColorMatrix in="SourceAlpha" type="matrix" values="0 0 0 0 0 0 0 0 0 0 0 0 0 0 0 0 0 0 127 0" result="hardAlpha"/>
<feMorphology radius="4" operator="erode" in="SourceAlpha" result="effect1_dropShadow_126_3231"/>
<feOffset dy="8"/>
<feGaussianBlur stdDeviation="4"/>
<feColorMatrix type="matrix" values="0 0 0 0 0.0627451 0 0 0 0 0.0941176 0 0 0 0 0.156863 0 0 0 0.03 0"/>
<feBlend mode="normal" in2="BackgroundImageFix" result="effect1_dropShadow_126_3231"/>
<feColorMatrix in="SourceAlpha" type="matrix" values="0 0 0 0 0 0 0 0 0 0 0 0 0 0 0 0 0 0 127 0" result="hardAlpha"/>
<feMorphology radius="4" operator="erode" in="SourceAlpha" result="effect2_dropShadow_126_3231"/>
<feOffset dy="20"/>
<feGaussianBlur stdDeviation="12"/>
<feColorMatrix type="matrix" values="0 0 0 0 0.0627451 0 0 0 0 0.0941176 0 0 0 0 0.156863 0 0 0 0.08 0"/>
<feBlend mode="normal" in2="effect1_dropShadow_126_3231" result="effect2_dropShadow_126_3231"/>
<feBlend mode="normal" in="SourceGraphic" in2="effect2_dropShadow_126_3231" result="shape"/>
</filter>
<filter id="filter1_b_126_3231" x="54" y="52" width="72" height="72" filterUnits="userSpaceOnUse" color-interpolation-filters="sRGB">
<feFlood flood-opacity="0" result="BackgroundImageFix"/>
<feGaussianBlur in="BackgroundImageFix" stdDeviation="4"/>
<feComposite in2="SourceAlpha" operator="in" result="effect1_backgroundBlur_126_3231"/>
<feBlend mode="normal" in="SourceGraphic" in2="effect1_backgroundBlur_126_3231" result="shape"/>
</filter>
<linearGradient id="paint0_linear_126_3231" x1="14.5" y1="-9" x2="172.5" y2="150.5" gradientUnits="userSpaceOnUse">
<stop stop-color="#FF733A"/>
<stop offset="1" stop-color="#FFEDE6"/>
</linearGradient>
<linearGradient id="paint1_linear_126_3231" x1="27.4286" y1="42.8571" x2="84" y2="96" gradientUnits="userSpaceOnUse">
<stop stop-color="#FEE3D7"/>
<stop offset="0.350715" stop-color="white" stop-opacity="0"/>
</linearGradient>
<linearGradient id="paint2_linear_126_3231" x1="61.2857" y1="29.5714" x2="132" y2="95.9999" gradientUnits="userSpaceOnUse">
<stop stop-color="#FEE3D7"/>
<stop offset="0.350715" stop-color="white" stop-opacity="0"/>
</linearGradient>
<linearGradient id="paint3_linear_126_3231" x1="110.5" y1="49.5" x2="160" y2="96" gradientUnits="userSpaceOnUse">
<stop stop-color="#FEE3D7"/>
<stop offset="0.350715" stop-color="white" stop-opacity="0"/>
</linearGradient>
</defs>
</svg>
