<svg width="36" height="36" viewBox="0 0 36 36" fill="none" xmlns="http://www.w3.org/2000/svg">
<path d="M13 22.1667C13 22.4594 13 22.6058 13.0131 22.7331C13.1215 23.7895 13.8855 24.6622 14.9184 24.9093C15.0428 24.939 15.1879 24.9584 15.4781 24.9971L20.9713 25.7295C22.535 25.938 23.3169 26.0423 23.9237 25.801C24.4565 25.5891 24.9002 25.2006 25.1806 24.7005C25.5 24.1309 25.5 23.3421 25.5 21.7646V14.2354C25.5 12.6579 25.5 11.8691 25.1806 11.2995C24.9002 10.7994 24.4565 10.4109 23.9237 10.199C23.3169 9.95776 22.535 10.062 20.9713 10.2705L15.4781 11.0029C15.1879 11.0416 15.0428 11.061 14.9184 11.0907C13.8855 11.3378 13.1215 12.2105 13.0131 13.267C13 13.3942 13 13.5406 13 13.8333M18 14.6667L21.3333 18M21.3333 18L18 21.3333M21.3333 18H10.5" stroke="#475467" stroke-width="1.66667" stroke-linecap="round" stroke-linejoin="round"/>
</svg>
