<svg width="14" height="20" viewBox="0 0 14 20" fill="none" xmlns="http://www.w3.org/2000/svg">
<path d="M7 14.5834H7.00834M3.83334 18.3334H10.1667C11.1001 18.3334 11.5668 18.3334 11.9233 18.1517C12.2369 17.9919 12.4919 17.7369 12.6517 17.4233C12.8333 17.0668 12.8333 16.6001 12.8333 15.6667V4.33335C12.8333 3.39993 12.8333 2.93322 12.6517 2.5767C12.4919 2.2631 12.2369 2.00813 11.9233 1.84834C11.5668 1.66669 11.1001 1.66669 10.1667 1.66669H3.83334C2.89992 1.66669 2.43321 1.66669 2.07669 1.84834C1.76308 2.00813 1.50812 2.2631 1.34833 2.5767C1.16667 2.93322 1.16667 3.39993 1.16667 4.33335V15.6667C1.16667 16.6001 1.16667 17.0668 1.34833 17.4233C1.50812 17.7369 1.76308 17.9919 2.07669 18.1517C2.43321 18.3334 2.89992 18.3334 3.83334 18.3334ZM7.41667 14.5834C7.41667 14.8135 7.23012 15 7 15C6.76989 15 6.58334 14.8135 6.58334 14.5834C6.58334 14.3532 6.76989 14.1667 7 14.1667C7.23012 14.1667 7.41667 14.3532 7.41667 14.5834Z" stroke="#667085" stroke-width="1.66667" stroke-linecap="round" stroke-linejoin="round"/>
</svg>
